<?xml version="1.0" encoding="UTF-8"?>
<svg id="Layer_1" xmlns="http://www.w3.org/2000/svg" version="1.1" viewBox="0 0 354.33 354.33">
  <!-- Generator: Adobe Illustrator 30.3.0, SVG Export Plug-In . SVG Version: 2.1.1 Build 22)  -->
  <defs>
    <style>
      .st0 {
        fill: #f5e8ca;
      }

      .st1 {
        fill: #fff;
      }

      .st2 {
        fill: #129d49;
      }

      .st3 {
        fill: #fbd800;
      }

      .st4 {
        fill: #233a75;
      }
    </style>
  </defs>
  <g>
    <path class="st0" d="M17.96,289.81c-2.44,0-4.71-.24-6.78-.71-2.08-.47-3.89-1.15-5.43-2.03-1.54-.88-2.74-1.97-3.6-3.28-.86-1.31-1.29-2.82-1.29-4.53v-.51c0-.17.02-.32.06-.45h9.32v.58c.04,1.03.43,1.86,1.16,2.51.73.64,1.69,1.1,2.89,1.38,1.2.28,2.46.42,3.79.42,1.24,0,2.45-.09,3.63-.26,1.18-.17,2.16-.51,2.96-1.03.79-.51,1.19-1.2,1.19-2.06,0-1.07-.47-1.86-1.41-2.38-.94-.51-2.24-.92-3.89-1.22-1.65-.3-3.5-.64-5.56-1.03-1.72-.3-3.35-.68-4.92-1.16-1.57-.47-2.97-1.08-4.21-1.83-1.24-.75-2.23-1.71-2.96-2.89-.73-1.18-1.09-2.65-1.09-4.41s.41-3.43,1.22-4.76c.81-1.33,1.97-2.42,3.47-3.28,1.5-.86,3.27-1.49,5.31-1.9,2.04-.41,4.23-.61,6.59-.61,2.19,0,4.24.2,6.17.61,1.93.41,3.6,1.01,5.02,1.8,1.41.79,2.54,1.79,3.38,2.99.84,1.2,1.25,2.55,1.25,4.05v.71c0,.22-.02.39-.06.51h-9.32v-.45c0-.81-.29-1.48-.87-1.99-.58-.51-1.37-.91-2.38-1.19-1.01-.28-2.15-.42-3.44-.42-.64,0-1.37.04-2.19.13-.81.09-1.6.24-2.35.45-.75.22-1.35.51-1.8.9-.45.39-.68.88-.68,1.48,0,.77.41,1.38,1.22,1.83.81.45,1.9.8,3.25,1.06,1.35.26,2.82.54,4.41.84,1.8.39,3.6.78,5.4,1.19,1.8.41,3.45.95,4.95,1.64,1.5.69,2.68,1.67,3.54,2.96.86,1.29,1.29,3,1.29,5.14s-.42,3.81-1.25,5.24c-.84,1.44-2.03,2.59-3.57,3.47-1.54.88-3.37,1.51-5.47,1.9-2.1.39-4.42.58-6.95.58Z"/>
    <path class="st0" d="M52.97,289.81c-4.03,0-7.15-1.03-9.36-3.09-2.21-2.06-3.31-5.29-3.31-9.71v-21.8h9.39v20.26c0,1.24.15,2.28.45,3.12.3.84.75,1.51,1.35,2.03.6.51,1.32.89,2.15,1.13.84.24,1.79.35,2.86.35,1.54,0,2.95-.34,4.21-1.03,1.26-.69,2.28-1.64,3.05-2.86.77-1.22,1.16-2.6,1.16-4.15v-18.84h9.45v33.83h-7.72l-.71-5.14h-.45c-1.03,1.33-2.19,2.43-3.47,3.31-1.29.88-2.71,1.53-4.28,1.96-1.57.43-3.16.64-4.79.64Z"/>
    <path class="st0" d="M81.31,300.81v-45.6h7.65l.84,4.89h.45c1.33-2.06,3.01-3.51,5.05-4.37,2.04-.86,4.25-1.29,6.66-1.29,3.13,0,5.84.62,8.14,1.86,2.29,1.24,4.06,3.17,5.31,5.79,1.24,2.62,1.86,5.96,1.86,10.03s-.63,7.29-1.9,9.9c-1.26,2.62-3.01,4.57-5.24,5.85-2.23,1.29-4.85,1.93-7.85,1.93-1.5,0-2.95-.17-4.34-.51-1.39-.34-2.67-.87-3.83-1.58-1.16-.71-2.14-1.58-2.96-2.6h-.39v15.69h-9.45ZM99.26,282.16c1.93,0,3.51-.35,4.76-1.06,1.24-.71,2.16-1.78,2.77-3.22.6-1.44.9-3.14.9-5.11v-1.29c0-2.06-.3-3.79-.9-5.21-.6-1.41-1.52-2.48-2.77-3.18-1.24-.71-2.85-1.06-4.82-1.06-1.84,0-3.4.39-4.66,1.16-1.26.77-2.23,1.88-2.89,3.31-.67,1.44-1,3.14-1,5.11v.9c0,1.46.19,2.8.58,4.02.39,1.22.93,2.25,1.64,3.09.71.84,1.59,1.47,2.64,1.9,1.05.43,2.3.64,3.76.64Z"/>
    <path class="st0" d="M140.79,289.81c-4.07,0-7.54-.63-10.39-1.9-2.85-1.26-5.03-3.2-6.53-5.82-1.5-2.61-2.25-5.94-2.25-9.97s.75-7.35,2.25-9.97c1.5-2.61,3.65-4.55,6.46-5.82,2.81-1.26,6.21-1.9,10.19-1.9s7.21.62,9.94,1.86c2.72,1.24,4.78,3.14,6.17,5.69,1.39,2.55,2.09,5.76,2.09,9.61v2.64h-27.4c.09,1.97.49,3.61,1.22,4.92.73,1.31,1.79,2.26,3.18,2.86,1.39.6,3.12.9,5.18.9,1.03,0,2.01-.12,2.96-.35.94-.23,1.8-.6,2.57-1.09.77-.49,1.41-1.1,1.93-1.83.51-.73.79-1.56.84-2.51h9.45c0,1.97-.44,3.75-1.32,5.34-.88,1.59-2.09,2.92-3.63,3.99-1.54,1.07-3.41,1.9-5.59,2.48-2.19.58-4.63.87-7.33.87ZM131.47,268.39h17.36c0-1.2-.2-2.25-.61-3.15-.41-.9-.98-1.65-1.7-2.25-.73-.6-1.59-1.04-2.57-1.32-.99-.28-2.08-.42-3.28-.42-1.84,0-3.42.27-4.73.8-1.31.54-2.33,1.34-3.05,2.41-.73,1.07-1.2,2.38-1.41,3.92Z"/>
    <path class="st0" d="M164.53,289.04v-33.83h7.72l.77,5.53h.45c.43-1.16,1.05-2.23,1.86-3.22.81-.99,1.81-1.76,2.99-2.32,1.18-.56,2.52-.84,4.02-.84.77,0,1.48.06,2.12.19.64.13,1.2.28,1.67.45v8.23h-3.73c-1.46,0-2.71.23-3.76.68-1.05.45-1.93,1.09-2.64,1.93-.71.84-1.22,1.81-1.54,2.93-.32,1.12-.48,2.38-.48,3.79v16.46h-9.45Z"/>
    <path class="st0" d="M204.28,289.81c-2.36,0-4.29-.36-5.79-1.09-1.5-.73-2.6-1.81-3.31-3.25-.71-1.44-1.06-3.23-1.06-5.37v-17.81h-5.21v-7.07h5.59l1.8-9.84h7.27v9.84h7.59v7.07h-7.59v16.46c0,1.29.27,2.26.8,2.93.54.67,1.55,1,3.05,1h3.73v6.11c-.56.17-1.24.33-2.06.48-.81.15-1.65.28-2.51.39-.86.11-1.63.16-2.32.16Z"/>
    <path class="st0" d="M233.66,289.81c-4.07,0-7.54-.63-10.39-1.9-2.85-1.26-5.03-3.2-6.53-5.82-1.5-2.61-2.25-5.94-2.25-9.97s.75-7.35,2.25-9.97c1.5-2.61,3.65-4.55,6.46-5.82,2.81-1.26,6.21-1.9,10.19-1.9s7.21.62,9.94,1.86c2.72,1.24,4.78,3.14,6.17,5.69,1.39,2.55,2.09,5.76,2.09,9.61v2.64h-27.4c.09,1.97.49,3.61,1.22,4.92.73,1.31,1.79,2.26,3.18,2.86,1.39.6,3.12.9,5.18.9,1.03,0,2.01-.12,2.96-.35.94-.23,1.8-.6,2.57-1.09.77-.49,1.41-1.1,1.93-1.83.51-.73.79-1.56.84-2.51h9.45c0,1.97-.44,3.75-1.32,5.34-.88,1.59-2.09,2.92-3.63,3.99-1.54,1.07-3.41,1.9-5.59,2.48-2.19.58-4.63.87-7.33.87ZM224.33,268.39h17.36c0-1.2-.2-2.25-.61-3.15-.41-.9-.98-1.65-1.7-2.25-.73-.6-1.59-1.04-2.57-1.32-.99-.28-2.08-.42-3.28-.42-1.84,0-3.42.27-4.73.8-1.31.54-2.33,1.34-3.05,2.41-.73,1.07-1.2,2.38-1.41,3.92Z"/>
    <path class="st0" d="M268.26,289.81c-1.5,0-3-.15-4.5-.45-1.5-.3-2.84-.79-4.02-1.48-1.18-.69-2.13-1.66-2.86-2.93-.73-1.26-1.09-2.88-1.09-4.86,0-2.53.6-4.58,1.8-6.14,1.2-1.56,2.94-2.74,5.21-3.54,2.27-.79,4.96-1.32,8.07-1.58,3.11-.26,6.53-.39,10.26-.39v-1.99c0-1.16-.25-2.11-.74-2.86-.49-.75-1.27-1.34-2.32-1.77-1.05-.43-2.45-.64-4.21-.64-1.54,0-2.86.16-3.96.48-1.09.32-1.93.74-2.51,1.25-.58.51-.87,1.12-.87,1.8v.77h-9.26c-.04-.26-.08-.47-.1-.64-.02-.17-.03-.39-.03-.64,0-1.97.66-3.7,1.99-5.18,1.33-1.48,3.27-2.61,5.82-3.41,2.55-.79,5.6-1.19,9.16-1.19s6.55.39,8.97,1.16c2.42.77,4.28,1.97,5.56,3.6,1.29,1.63,1.93,3.71,1.93,6.24v14.86c0,.77.2,1.36.61,1.77.41.41.91.61,1.51.61h2.7v6.04c-.47.22-1.22.44-2.25.68-1.03.23-2.23.35-3.6.35-1.59,0-2.89-.2-3.92-.61-1.03-.41-1.83-.96-2.41-1.67-.58-.71-1-1.53-1.25-2.48h-.51c-.9.94-2,1.79-3.31,2.54-1.31.75-2.79,1.32-4.44,1.7-1.65.39-3.46.58-5.43.58ZM271.09,282.86c1.24,0,2.45-.16,3.63-.48,1.18-.32,2.24-.77,3.18-1.35.94-.58,1.71-1.31,2.32-2.19.6-.88.9-1.83.9-2.86v-1.86c-3.34,0-6.2.16-8.55.48-2.36.32-4.17.86-5.43,1.61-1.27.75-1.9,1.79-1.9,3.12,0,.86.26,1.54.77,2.06.51.51,1.22.89,2.12,1.13.9.24,1.89.35,2.96.35Z"/>
    <path class="st0" d="M298.98,289.04v-33.83h7.72l.77,5.08h.45c.9-1.33,1.98-2.43,3.25-3.31,1.26-.88,2.63-1.52,4.08-1.93,1.46-.41,2.96-.61,4.5-.61,2.61,0,4.82.46,6.62,1.38,1.8.92,3.17,2.41,4.12,4.47h.45c.94-1.33,2.05-2.43,3.31-3.31,1.26-.88,2.66-1.52,4.18-1.93,1.52-.41,3.08-.61,4.66-.61,2.53,0,4.68.43,6.46,1.29,1.78.86,3.16,2.23,4.15,4.12.99,1.89,1.48,4.29,1.48,7.2v21.99h-9.52v-20.39c0-1.2-.14-2.23-.42-3.09-.28-.86-.68-1.54-1.19-2.06s-1.17-.88-1.96-1.09c-.79-.21-1.64-.32-2.54-.32-1.41,0-2.71.33-3.89,1-1.18.67-2.12,1.61-2.83,2.83-.71,1.22-1.06,2.6-1.06,4.15v18.97h-9.39v-20.39c0-1.2-.15-2.23-.45-3.09-.3-.86-.72-1.54-1.25-2.06-.54-.51-1.18-.88-1.93-1.09-.75-.21-1.62-.32-2.6-.32-1.41,0-2.71.33-3.89,1-1.18.67-2.11,1.61-2.8,2.83-.69,1.22-1.03,2.6-1.03,4.15v18.97h-9.45Z"/>
  </g>
  <g>
    <polygon class="st1" points="256.23 184.81 256.59 184.54 256.15 184.54 256.01 184.12 255.87 184.54 255.42 184.54 255.78 184.81 255.65 185.23 256.01 184.97 256.37 185.23 256.23 184.81"/>
    <path class="st2" d="M280.42,176.95c0,2.91-.3,5.74-.86,8.49-.39,1.91-.91,3.79-1.55,5.59-.34.95-.71,1.89-1.11,2.81-1.26,2.89-2.84,5.61-4.67,8.11-.12.16-.23.31-.34.46-.71.94-1.45,1.83-2.23,2.7-.01,0-.01.01-.01.01-.14.15-.29.31-.43.48-3.11,3.37-6.77,6.23-10.83,8.46-6,3.27-12.88,5.13-20.2,5.13s-14.2-1.86-20.2-5.13c-2.35-1.29-4.56-2.78-6.6-4.47-.98-.79-1.9-1.63-2.8-2.5-.49-.49-.98-.99-1.45-1.49-.14-.16-.29-.33-.42-.48-.01,0-.01-.01-.01-.01-.77-.87-1.52-1.76-2.23-2.7-.11-.15-.23-.3-.34-.46-1.85-2.5-3.42-5.21-4.68-8.11-.39-.92-.76-1.86-1.1-2.81-.64-1.81-1.17-3.68-1.56-5.59-.56-2.74-.84-5.58-.84-8.49,0-2.61.23-5.16.69-7.63.04-.29.1-.57.15-.86.39-1.91.92-3.79,1.56-5.59h0c.34-.96.71-1.9,1.1-2.82h.01c1.26-2.88,2.82-5.59,4.67-8.1.11-.15.23-.3.34-.45.71-.94,1.45-1.85,2.23-2.72h.01c.14-.16.29-.33.42-.48.48-.52.96-1.02,1.45-1.49.9-.88,1.82-1.71,2.8-2.51,2.04-1.68,4.25-3.18,6.6-4.45,5.63-3.07,12.06-4.9,18.87-5.1.45-.01.88-.03,1.33-.03,7.32,0,14.2,1.86,20.2,5.13,4.06,2.21,7.72,5.08,10.83,8.46.15.15.3.31.43.48h.01c.77.87,1.52,1.78,2.23,2.72.11.15.22.3.34.45,1.83,2.51,3.41,5.23,4.67,8.1.41.92.77,1.86,1.11,2.81h0c.64,1.82,1.15,3.69,1.55,5.61.56,2.74.86,5.58.86,8.49Z"/>
    <path class="st3" d="M277.93,176.96c0,2.46-.22,4.91-.69,7.35l-39.06,24.94-39.06-24.94c-.47-2.41-.67-4.86-.67-7.35s.22-4.86.67-7.3c0-.02,0-.07.02-.1l39.04-24.94,39.06,24.94c.47,2.43.69,4.91.69,7.4Z"/>
    <path class="st4" d="M259.77,176.95c0,.99-.07,1.96-.19,2.91,0,.04-.01.08-.02.12-.16,1.17-.42,2.31-.77,3.42-.01.03-.02.07-.03.1-2.77,8.72-10.94,15.04-20.58,15.04-11.92,0-21.59-9.67-21.59-21.59,0-1.84.23-3.62.66-5.32,0-.04.02-.07.03-.1.3-1.14.68-2.25,1.15-3.3.02-.04.03-.07.05-.11,3.38-7.52,10.93-12.75,19.7-12.75,11.92,0,21.59,9.67,21.59,21.59Z"/>
    <path class="st1" d="M259.58,179.86s-.01.08-.02.12c-.16,1.17-.42,2.31-.77,3.42-.01.03-.02.07-.03.1l-.03-.03c-9.04-8.12-20.72-12.59-32.88-12.59-2.87,0-5.74.25-8.55.74h-.04s.02-.06.03-.1c.3-1.14.68-2.25,1.15-3.3.02-.04.03-.07.05-.11,2.42-.34,4.9-.51,7.37-.51,6.29,0,12.44,1.1,18.29,3.27,5.63,2.09,10.82,5.11,15.44,8.99Z"/>
    <polygon class="st1" points="245.71 169.87 246.25 169.47 245.58 169.47 245.37 168.83 245.16 169.47 244.49 169.47 245.04 169.87 244.83 170.51 245.37 170.11 245.92 170.51 245.71 169.87"/>
    <polygon class="st1" points="221.09 173.23 221.64 172.84 220.96 172.84 220.76 172.2 220.55 172.84 219.88 172.84 220.42 173.23 220.21 173.87 220.76 173.47 221.3 173.87 221.09 173.23"/>
    <polygon class="st1" points="223 182.31 223.54 181.91 222.87 181.91 222.66 181.27 222.46 181.91 221.78 181.91 222.33 182.31 222.12 182.95 222.66 182.55 223.21 182.95 223 182.31"/>
    <polygon class="st1" points="220.31 184.23 220.76 183.9 220.2 183.9 220.03 183.36 219.85 183.9 219.29 183.9 219.75 184.23 219.57 184.76 220.03 184.43 220.48 184.76 220.31 184.23"/>
    <polygon class="st1" points="224.95 180.92 225.22 180.73 224.89 180.73 224.79 180.41 224.68 180.73 224.35 180.73 224.62 180.92 224.52 181.24 224.79 181.04 225.06 181.24 224.95 180.92"/>
    <polygon class="st1" points="227.44 184.43 227.89 184.1 227.33 184.1 227.16 183.57 226.99 184.1 226.43 184.1 226.88 184.43 226.71 184.97 227.16 184.64 227.61 184.97 227.44 184.43"/>
    <polygon class="st1" points="230.21 178.04 230.67 177.72 230.11 177.72 229.93 177.18 229.76 177.72 229.2 177.72 229.65 178.04 229.48 178.58 229.93 178.25 230.39 178.58 230.21 178.04"/>
    <polygon class="st1" points="238.44 180.63 238.89 180.3 238.33 180.3 238.16 179.77 237.98 180.3 237.42 180.3 237.88 180.63 237.7 181.16 238.16 180.83 238.61 181.16 238.44 180.63"/>
    <polygon class="st1" points="240.93 182.57 241.39 182.24 240.83 182.24 240.65 181.71 240.48 182.24 239.92 182.24 240.37 182.57 240.2 183.1 240.65 182.77 241.11 183.1 240.93 182.57"/>
    <polygon class="st1" points="238.49 186.88 239.04 186.48 238.36 186.48 238.16 185.84 237.95 186.48 237.28 186.48 237.82 186.88 237.61 187.52 238.16 187.12 238.7 187.52 238.49 186.88"/>
    <polygon class="st1" points="236.21 182.54 236.57 182.28 236.13 182.28 235.99 181.86 235.86 182.28 235.42 182.28 235.78 182.54 235.64 182.95 235.99 182.7 236.35 182.95 236.21 182.54"/>
    <polygon class="st1" points="237.23 184.03 237.49 183.84 237.17 183.84 237.07 183.53 236.97 183.84 236.65 183.84 236.91 184.03 236.81 184.33 237.07 184.14 237.33 184.33 237.23 184.03"/>
    <polygon class="st1" points="226.52 186.64 226.9 186.36 226.44 186.36 226.29 185.92 226.15 186.36 225.68 186.36 226.06 186.64 225.91 187.09 226.29 186.81 226.67 187.09 226.52 186.64"/>
    <polygon class="st1" points="229.83 188.64 230.37 188.24 229.7 188.24 229.49 187.6 229.28 188.24 228.61 188.24 229.16 188.64 228.95 189.28 229.49 188.88 230.04 189.28 229.83 188.64"/>
    <polygon class="st1" points="242.87 189.12 243.23 188.86 242.78 188.86 242.64 188.43 242.51 188.86 242.06 188.86 242.42 189.12 242.28 189.55 242.64 189.29 243.01 189.55 242.87 189.12"/>
    <polygon class="st1" points="246.42 189.65 246.78 189.39 246.34 189.39 246.2 188.96 246.06 189.39 245.61 189.39 245.97 189.65 245.84 190.08 246.2 189.81 246.56 190.08 246.42 189.65"/>
    <polygon class="st1" points="248.83 188.92 249.19 188.65 248.74 188.65 248.61 188.23 248.47 188.65 248.02 188.65 248.38 188.92 248.24 189.34 248.61 189.08 248.97 189.34 248.83 188.92"/>
    <polygon class="st1" points="251.06 189.33 251.43 189.07 250.98 189.07 250.84 188.64 250.7 189.07 250.25 189.07 250.61 189.33 250.48 189.76 250.84 189.49 251.2 189.76 251.06 189.33"/>
    <polygon class="st1" points="254.17 186.53 254.63 186.2 254.07 186.2 253.89 185.67 253.72 186.2 253.16 186.2 253.61 186.53 253.44 187.06 253.89 186.73 254.35 187.06 254.17 186.53"/>
    <polygon class="st1" points="253.35 184.64 253.89 184.24 253.22 184.24 253.01 183.6 252.8 184.24 252.13 184.24 252.68 184.64 252.47 185.28 253.01 184.88 253.56 185.28 253.35 184.64"/>
    <polygon class="st1" points="252.85 188.26 253.3 187.93 252.74 187.93 252.57 187.4 252.4 187.93 251.84 187.93 252.29 188.26 252.12 188.79 252.57 188.46 253.02 188.79 252.85 188.26"/>
    <polygon class="st1" points="248.89 193.21 249.25 192.94 248.8 192.94 248.67 192.52 248.53 192.94 248.08 192.94 248.44 193.21 248.3 193.63 248.67 193.37 249.03 193.63 248.89 193.21"/>
    <polygon class="st1" points="248.97 191.05 249.43 190.72 248.87 190.72 248.69 190.19 248.52 190.72 247.96 190.72 248.41 191.05 248.24 191.58 248.69 191.25 249.15 191.58 248.97 191.05"/>
    <polygon class="st1" points="244.63 191.58 245.08 191.25 244.52 191.25 244.35 190.72 244.17 191.25 243.61 191.25 244.07 191.58 243.89 192.11 244.35 191.78 244.8 192.11 244.63 191.58"/>
    <polygon class="st1" points="244.23 175.98 244.59 175.72 244.15 175.72 244.01 175.29 243.87 175.72 243.42 175.72 243.78 175.98 243.64 176.41 244.01 176.15 244.37 176.41 244.23 175.98"/>
    <polygon class="st1" points="238.25 193.93 238.45 193.79 238.21 193.79 238.13 193.56 238.06 193.79 237.81 193.79 238.01 193.93 237.94 194.16 238.13 194.02 238.33 194.16 238.25 193.93"/>
    <path class="st0" d="M162.5,20.97v80.48h-34.12l10.83,4.48c34.35,15.91,32.85,72.5-11.26,72.5h-52.05v-80.48h37.61c-.5,0-8.42-1.98-10.29-2.81-2.86-1.27-6.73-2.8-9.56-4.9-29.79-20.64-22.62-69.28,18.54-69.28h50.3Z"/>
    <path class="st0" d="M280.59,45.47v19.67c0,17.66-17.87,34.48-34.65,37.09-3.11.49-6.23.56-9.1.56v18.38c-8.87.2-17.61,2.54-25.37,6.76-3.08,1.68-6.01,3.65-8.72,5.89-1.28,1.03-2.51,2.14-3.68,3.3-.65.64-1.29,1.3-1.91,1.97-.2.22-.39.42-.57.64h-.01c-1.02,1.15-2.01,2.35-2.95,3.57-.15.2-.3.41-.45.61-2.44,3.33-4.52,6.92-6.18,10.7h0c-.49,1.14-.95,2.29-1.36,3.45-1.66-2.54-3.11-5.36-4.34-8.51-8.39-21.45-5.21-76.19-5.73-101.86-.19-8.89.2-17.83.03-26.72h61.24v24.52l1.32-.02h42.43Z"/>
  </g>
  <g>
    <path class="st0" d="M164.53,315.1v-18.31h15.03c.99,0,1.89.19,2.69.57.8.38,1.43.91,1.9,1.58.47.67.71,1.46.71,2.37,0,.8-.14,1.48-.43,2.05-.28.57-.67,1.03-1.16,1.38-.49.35-1.02.62-1.61.8v.11c.69.14,1.31.39,1.86.76s.98.86,1.3,1.48c.32.62.48,1.37.48,2.26,0,1.05-.25,1.94-.76,2.67-.51.74-1.18,1.3-2.04,1.69s-1.81.59-2.87.59h-15.11ZM169.93,304.03h7.45c.41,0,.75-.08,1.04-.23.28-.15.51-.36.67-.62.16-.27.24-.59.24-.96,0-.51-.18-.93-.53-1.24-.35-.31-.8-.47-1.33-.47h-7.53v3.51ZM169.93,311.24h7.9c.57,0,1.03-.15,1.38-.47.35-.31.53-.79.53-1.42,0-.34-.08-.64-.23-.91-.15-.27-.38-.47-.68-.62-.3-.15-.67-.23-1.09-.23h-7.82v3.64Z"/>
    <path class="st0" d="M202.15,315.1v-18.31h15.22c1.33,0,2.43.28,3.3.82.87.55,1.53,1.27,1.97,2.17s.67,1.88.67,2.94c0,1.15-.28,2.2-.83,3.15-.55.95-1.37,1.7-2.47,2.25l3.73,6.97h-6.12l-3.03-6.09h-7.02v6.09h-5.4ZM207.56,305.02h8.04c.66,0,1.18-.2,1.57-.59.39-.39.59-.91.59-1.57,0-.43-.09-.79-.27-1.1s-.43-.55-.74-.71-.7-.24-1.14-.24h-8.04v4.2Z"/>
    <path class="st0" d="M238.39,315.1l8.99-18.31h6.04l8.99,18.31h-5.88l-1.38-2.93h-9.79l-1.38,2.93h-5.59ZM247.17,308.21h6.17l-1.65-3.73c-.07-.16-.17-.39-.29-.71-.12-.31-.26-.64-.4-.98s-.27-.67-.37-.96c-.11-.29-.2-.51-.27-.65h-.19c-.12.32-.28.69-.45,1.12-.18.43-.34.83-.49,1.22-.15.39-.29.71-.41.96l-1.65,3.73Z"/>
    <path class="st0" d="M288.15,315.42c-1.49,0-2.88-.09-4.18-.27-1.29-.18-2.43-.49-3.41-.93-.98-.44-1.74-1.06-2.29-1.86-.55-.8-.82-1.81-.82-3.03v-.13c0-.05,0-.11.03-.16h5.32c-.02.07-.03.14-.04.21,0,.07-.01.15-.01.24,0,.55.21.98.63,1.29.42.31,1,.53,1.74.65.74.12,1.62.19,2.63.19.41,0,.83-.01,1.26-.04.43-.03.86-.07,1.26-.13.41-.06.78-.15,1.1-.28.33-.12.59-.28.77-.47.19-.19.28-.42.28-.71,0-.37-.2-.67-.6-.89-.4-.22-.95-.4-1.65-.53-.7-.13-1.48-.25-2.34-.36-.86-.11-1.75-.23-2.67-.39-.92-.15-1.82-.35-2.69-.61-.87-.26-1.65-.6-2.34-1.02-.69-.43-1.24-.98-1.65-1.65-.41-.67-.61-1.49-.61-2.45s.24-1.81.73-2.51c.49-.7,1.17-1.28,2.06-1.74.89-.46,1.93-.8,3.14-1.02s2.52-.33,3.94-.33,2.77.12,3.95.35c1.18.23,2.19.57,3.03,1.02.84.45,1.49,1.02,1.94,1.7.45.68.68,1.49.68,2.41v.37h-5.24v-.21c0-.37-.16-.71-.48-1-.32-.29-.79-.52-1.4-.69-.61-.17-1.35-.25-2.22-.25-1.05,0-1.91.07-2.58.2-.67.13-1.17.31-1.49.53-.32.22-.48.47-.48.76,0,.36.2.63.61.84.41.2.96.37,1.65.49.69.12,1.47.24,2.33.35.86.11,1.76.23,2.69.37.93.14,1.83.34,2.69.59.86.25,1.64.58,2.33,1s1.24.95,1.65,1.6c.41.65.61,1.44.61,2.38,0,1.47-.43,2.66-1.28,3.57-.85.9-2.02,1.56-3.5,1.97-1.48.41-3.18.61-5.1.61Z"/>
    <path class="st0" d="M314.76,315.1v-18.31h5.4v18.31h-5.4Z"/>
    <path class="st0" d="M337.99,315.1v-18.31h5.4v13.94h11.76v4.36h-17.16Z"/>
  </g>
</svg>