<?xml version="1.0" encoding="UTF-8"?>
<svg id="Layer_1" xmlns="http://www.w3.org/2000/svg" version="1.1" viewBox="0 0 508.35 86.81">
  <!-- Generator: Adobe Illustrator 30.3.0, SVG Export Plug-In . SVG Version: 2.1.1 Build 22)  -->
  <defs>
    <style>
      .st0 {
        fill: #f5e8ca;
      }

      .st1 {
        fill: #fff;
      }

      .st2 {
        fill: #129d49;
      }

      .st3 {
        fill: #fbd800;
      }

      .st4 {
        fill: #233a75;
      }
    </style>
  </defs>
  <polygon class="st1" points="77.68 69.02 77.82 68.92 77.65 68.92 77.59 68.75 77.54 68.92 77.36 68.92 77.5 69.02 77.45 69.19 77.59 69.09 77.74 69.19 77.68 69.02"/>
  <polygon class="st1" points="52.76 58.15 52.77 58.15 52.76 58.16 52.76 58.15"/>
  <path class="st2" d="M87.25,65.92c0,1.15-.12,2.27-.34,3.36-.16.76-.36,1.5-.61,2.21-.13.38-.28.75-.44,1.11-.5,1.14-1.12,2.22-1.85,3.21-.05.06-.09.12-.13.18-.28.37-.57.73-.88,1.07,0,0,0,0,0,0-.05.06-.11.12-.17.19-1.23,1.33-2.68,2.47-4.29,3.35-2.37,1.29-5.1,2.03-7.99,2.03s-5.62-.74-7.99-2.03c-.93-.51-1.81-1.1-2.61-1.77-.39-.31-.75-.64-1.11-.99-.19-.19-.39-.39-.57-.59-.05-.06-.11-.13-.17-.19,0,0,0,0,0,0-.31-.34-.6-.7-.88-1.07-.04-.06-.09-.12-.13-.18-.73-.99-1.35-2.06-1.85-3.21-.16-.37-.3-.74-.44-1.11-.25-.71-.46-1.46-.62-2.21-.22-1.09-.33-2.21-.33-3.36,0-1.03.09-2.04.27-3.02.02-.11.04-.23.06-.34.16-.76.37-1.5.62-2.21h0c.13-.38.28-.75.44-1.12h0c.5-1.14,1.12-2.21,1.85-3.21.04-.06.09-.12.13-.18.28-.37.57-.73.88-1.07h0c.05-.06.11-.13.17-.19.19-.2.38-.4.57-.59.35-.35.72-.68,1.11-.99.81-.67,1.68-1.26,2.61-1.76,2.23-1.21,4.77-1.94,7.47-2.02.18,0,.35-.01.53-.01,2.9,0,5.62.74,7.99,2.03,1.61.88,3.06,2.01,4.29,3.35.06.06.12.12.17.19h0c.31.34.6.7.88,1.07.04.06.09.12.13.18.73.99,1.35,2.07,1.85,3.21.16.37.31.74.44,1.11h0c.25.72.46,1.46.61,2.22.22,1.09.34,2.21.34,3.36Z"/>
  <path class="st1" d="M52.76,58.15h0s0,0,0,0h-.01Z"/>
  <path class="st3" d="M86.27,65.92c0,.97-.09,1.94-.27,2.91l-15.46,9.87-15.46-9.87c-.19-.95-.27-1.92-.27-2.91s.09-1.92.27-2.89c0,0,0-.03,0-.04l15.45-9.87,15.46,9.87c.19.96.27,1.94.27,2.93Z"/>
  <path class="st4" d="M79.08,65.92c0,.39-.03.77-.08,1.15,0,.02,0,.03,0,.05-.06.46-.17.92-.3,1.35,0,.01,0,.03-.01.04-1.1,3.45-4.33,5.95-8.14,5.95-4.72,0-8.54-3.82-8.54-8.54,0-.73.09-1.43.26-2.11,0-.01,0-.03.01-.04.12-.45.27-.89.46-1.31,0-.01.01-.03.02-.04,1.34-2.97,4.32-5.05,7.8-5.05,4.72,0,8.54,3.82,8.54,8.54Z"/>
  <path class="st1" d="M79,67.07s0,.03,0,.05c-.06.46-.17.92-.3,1.35,0,.01,0,.03-.01.04h-.01c-3.58-3.22-8.2-4.99-13.01-4.99-1.14,0-2.27.1-3.38.29h-.02s0-.02.01-.04c.12-.45.27-.89.46-1.31,0-.01.01-.03.02-.04.96-.13,1.94-.2,2.91-.2,2.49,0,4.92.44,7.24,1.29,2.23.83,4.28,2.02,6.11,3.56Z"/>
  <polygon class="st1" points="73.52 63.11 73.73 62.96 73.47 62.96 73.38 62.7 73.3 62.96 73.03 62.96 73.25 63.11 73.17 63.37 73.38 63.21 73.6 63.37 73.52 63.11"/>
  <polygon class="st1" points="63.77 64.44 63.99 64.29 63.72 64.29 63.64 64.03 63.56 64.29 63.29 64.29 63.51 64.44 63.43 64.7 63.64 64.54 63.86 64.7 63.77 64.44"/>
  <polygon class="st1" points="64.53 68.04 64.75 67.88 64.48 67.88 64.4 67.63 64.32 67.88 64.05 67.88 64.26 68.04 64.18 68.29 64.4 68.13 64.61 68.29 64.53 68.04"/>
  <polygon class="st1" points="63.46 68.79 63.64 68.66 63.42 68.66 63.35 68.45 63.28 68.66 63.06 68.66 63.24 68.79 63.17 69.01 63.35 68.88 63.53 69.01 63.46 68.79"/>
  <polygon class="st1" points="65.3 67.49 65.41 67.41 65.28 67.41 65.24 67.29 65.2 67.41 65.06 67.41 65.17 67.49 65.13 67.61 65.24 67.54 65.34 67.61 65.3 67.49"/>
  <polygon class="st1" points="66.29 68.88 66.47 68.75 66.24 68.75 66.18 68.54 66.11 68.75 65.89 68.75 66.06 68.88 66 69.09 66.18 68.96 66.36 69.09 66.29 68.88"/>
  <polygon class="st1" points="67.38 66.35 67.56 66.22 67.34 66.22 67.27 66.01 67.2 66.22 66.98 66.22 67.16 66.35 67.09 66.56 67.27 66.43 67.45 66.56 67.38 66.35"/>
  <polygon class="st1" points="70.64 67.37 70.82 67.24 70.6 67.24 70.53 67.03 70.46 67.24 70.24 67.24 70.42 67.37 70.35 67.58 70.53 67.45 70.71 67.58 70.64 67.37"/>
  <polygon class="st1" points="71.63 68.14 71.81 68.01 71.58 68.01 71.52 67.8 71.45 68.01 71.23 68.01 71.4 68.14 71.34 68.35 71.52 68.22 71.7 68.35 71.63 68.14"/>
  <polygon class="st1" points="70.66 69.84 70.88 69.69 70.61 69.69 70.53 69.43 70.45 69.69 70.18 69.69 70.39 69.84 70.31 70.1 70.53 69.94 70.74 70.1 70.66 69.84"/>
  <polygon class="st1" points="69.76 68.13 69.9 68.02 69.73 68.02 69.67 67.86 69.62 68.02 69.44 68.02 69.59 68.13 69.53 68.29 69.67 68.19 69.81 68.29 69.76 68.13"/>
  <polygon class="st1" points="70.16 68.72 70.26 68.64 70.14 68.64 70.1 68.52 70.06 68.64 69.93 68.64 70.03 68.72 70 68.84 70.1 68.76 70.2 68.84 70.16 68.72"/>
  <polygon class="st1" points="65.93 69.75 66.08 69.64 65.89 69.64 65.83 69.46 65.77 69.64 65.59 69.64 65.74 69.75 65.68 69.93 65.83 69.82 65.98 69.93 65.93 69.75"/>
  <polygon class="st1" points="67.23 70.54 67.45 70.38 67.18 70.38 67.1 70.13 67.02 70.38 66.75 70.38 66.97 70.54 66.88 70.79 67.1 70.64 67.31 70.79 67.23 70.54"/>
  <polygon class="st1" points="72.39 70.73 72.54 70.63 72.36 70.63 72.3 70.46 72.25 70.63 72.07 70.63 72.21 70.73 72.16 70.9 72.3 70.8 72.45 70.9 72.39 70.73"/>
  <polygon class="st1" points="73.8 70.94 73.94 70.84 73.76 70.84 73.71 70.67 73.65 70.84 73.48 70.84 73.62 70.94 73.57 71.11 73.71 71.01 73.85 71.11 73.8 70.94"/>
  <polygon class="st1" points="74.75 70.65 74.89 70.55 74.72 70.55 74.66 70.38 74.61 70.55 74.43 70.55 74.57 70.65 74.52 70.82 74.66 70.72 74.81 70.82 74.75 70.65"/>
  <polygon class="st1" points="75.63 70.81 75.78 70.71 75.6 70.71 75.55 70.54 75.49 70.71 75.31 70.71 75.46 70.81 75.4 70.98 75.55 70.88 75.69 70.98 75.63 70.81"/>
  <polygon class="st1" points="76.87 69.71 77.05 69.58 76.82 69.58 76.75 69.36 76.69 69.58 76.46 69.58 76.64 69.71 76.58 69.92 76.75 69.79 76.93 69.92 76.87 69.71"/>
  <polygon class="st1" points="76.54 68.96 76.75 68.8 76.49 68.8 76.41 68.55 76.32 68.8 76.06 68.8 76.27 68.96 76.19 69.21 76.41 69.05 76.62 69.21 76.54 68.96"/>
  <polygon class="st1" points="76.34 70.39 76.52 70.26 76.3 70.26 76.23 70.05 76.16 70.26 75.94 70.26 76.12 70.39 76.05 70.6 76.23 70.47 76.41 70.6 76.34 70.39"/>
  <polygon class="st1" points="74.77 72.35 74.92 72.24 74.74 72.24 74.69 72.08 74.63 72.24 74.45 72.24 74.6 72.35 74.54 72.52 74.69 72.41 74.83 72.52 74.77 72.35"/>
  <polygon class="st1" points="74.81 71.5 74.99 71.37 74.77 71.37 74.7 71.15 74.63 71.37 74.41 71.37 74.59 71.5 74.52 71.71 74.7 71.58 74.88 71.71 74.81 71.5"/>
  <polygon class="st1" points="73.09 71.7 73.27 71.57 73.05 71.57 72.98 71.36 72.91 71.57 72.69 71.57 72.87 71.7 72.8 71.92 72.98 71.79 73.16 71.92 73.09 71.7"/>
  <polygon class="st1" points="72.93 65.53 73.07 65.43 72.9 65.43 72.84 65.26 72.79 65.43 72.61 65.43 72.75 65.53 72.7 65.7 72.84 65.6 72.99 65.7 72.93 65.53"/>
  <polygon class="st1" points="70.57 72.63 70.64 72.58 70.55 72.58 70.52 72.49 70.49 72.58 70.39 72.58 70.47 72.63 70.44 72.73 70.52 72.67 70.6 72.73 70.57 72.63"/>
  <g>
    <path class="st0" d="M122.99,53.99c-2.75,0-5.29-.27-7.63-.8-2.34-.53-4.38-1.29-6.11-2.28-1.74-.99-3.09-2.22-4.05-3.69-.96-1.47-1.45-3.17-1.45-5.1v-.58c0-.19.02-.36.07-.51h10.49v.65c.05,1.16.48,2.1,1.3,2.82.82.72,1.9,1.24,3.25,1.55,1.35.31,2.77.47,4.27.47,1.4,0,2.76-.1,4.09-.29,1.33-.19,2.43-.58,3.33-1.16.89-.58,1.34-1.35,1.34-2.31,0-1.2-.53-2.1-1.59-2.68-1.06-.58-2.52-1.04-4.38-1.37-1.86-.34-3.94-.72-6.26-1.16-1.93-.34-3.77-.77-5.53-1.3-1.76-.53-3.34-1.22-4.74-2.06-1.4-.84-2.51-1.93-3.33-3.25-.82-1.33-1.23-2.98-1.23-4.95s.46-3.86,1.37-5.35c.92-1.49,2.22-2.72,3.91-3.69,1.69-.96,3.68-1.67,5.97-2.13,2.29-.46,4.76-.69,7.41-.69,2.46,0,4.77.23,6.94.69,2.17.46,4.05,1.13,5.64,2.02,1.59.89,2.86,2.01,3.8,3.36.94,1.35,1.41,2.87,1.41,4.56v.8c0,.24-.02.43-.07.58h-10.49v-.51c0-.92-.33-1.66-.98-2.24s-1.54-1.02-2.68-1.34c-1.13-.31-2.42-.47-3.87-.47-.72,0-1.54.05-2.46.14-.92.1-1.8.27-2.64.51-.84.24-1.52.58-2.02,1.01-.51.43-.76.99-.76,1.66,0,.87.46,1.55,1.37,2.06.92.51,2.13.9,3.65,1.19,1.52.29,3.17.6,4.95.94,2.03.43,4.05.88,6.07,1.34,2.03.46,3.88,1.07,5.57,1.84,1.69.77,3.01,1.88,3.98,3.33.96,1.45,1.45,3.38,1.45,5.79s-.47,4.28-1.41,5.89c-.94,1.62-2.28,2.92-4.01,3.91-1.74.99-3.79,1.7-6.15,2.13-2.36.43-4.97.65-7.81.65Z"/>
    <path class="st0" d="M162.36,53.99c-4.53,0-8.04-1.16-10.52-3.47-2.48-2.31-3.72-5.95-3.72-10.92V15.08h10.56v22.78c0,1.4.17,2.57.51,3.51.34.94.84,1.7,1.52,2.28.67.58,1.48,1,2.42,1.27.94.27,2.01.4,3.22.4,1.74,0,3.31-.39,4.74-1.16,1.42-.77,2.57-1.84,3.44-3.22.87-1.37,1.3-2.93,1.3-4.66V15.08h10.63v38.04h-8.68l-.8-5.79h-.51c-1.16,1.5-2.46,2.74-3.91,3.72-1.45.99-3.05,1.72-4.81,2.21-1.76.48-3.56.72-5.39.72Z"/>
    <path class="st0" d="M194.23,66.36V15.08h8.61l.94,5.5h.51c1.49-2.31,3.39-3.95,5.68-4.92,2.29-.96,4.78-1.45,7.48-1.45,3.52,0,6.57.7,9.15,2.1,2.58,1.4,4.57,3.57,5.97,6.51,1.4,2.94,2.1,6.7,2.1,11.28s-.71,8.2-2.13,11.14c-1.42,2.94-3.39,5.13-5.89,6.58-2.51,1.45-5.45,2.17-8.82,2.17-1.69,0-3.31-.19-4.88-.58-1.57-.38-3-.98-4.3-1.77-1.3-.8-2.41-1.77-3.33-2.93h-.43v17.65h-10.63ZM214.4,45.38c2.17,0,3.95-.4,5.35-1.19,1.4-.8,2.43-2,3.11-3.62.67-1.61,1.01-3.53,1.01-5.75v-1.45c0-2.31-.34-4.27-1.01-5.86-.68-1.59-1.71-2.78-3.11-3.58-1.4-.8-3.21-1.19-5.42-1.19-2.07,0-3.82.43-5.24,1.3-1.42.87-2.51,2.11-3.25,3.72-.75,1.62-1.12,3.53-1.12,5.75v1.01c0,1.64.22,3.15.65,4.52.43,1.37,1.05,2.53,1.84,3.47.8.94,1.78,1.65,2.96,2.13,1.18.48,2.59.72,4.23.72Z"/>
    <path class="st0" d="M261.11,53.99c-4.58,0-8.47-.71-11.68-2.13-3.21-1.42-5.65-3.6-7.34-6.54-1.69-2.94-2.53-6.68-2.53-11.21s.84-8.27,2.53-11.21c1.69-2.94,4.11-5.12,7.27-6.54,3.16-1.42,6.98-2.13,11.46-2.13s8.11.7,11.17,2.1c3.06,1.4,5.38,3.53,6.94,6.4,1.57,2.87,2.35,6.47,2.35,10.81v2.96h-30.81c.1,2.22.55,4.06,1.37,5.53.82,1.47,2.01,2.54,3.58,3.22,1.57.68,3.51,1.01,5.82,1.01,1.16,0,2.27-.13,3.33-.4,1.06-.26,2.02-.67,2.89-1.23.87-.55,1.59-1.24,2.17-2.06.58-.82.89-1.76.94-2.82h10.63c0,2.22-.5,4.22-1.48,6-.99,1.78-2.35,3.28-4.09,4.48-1.74,1.21-3.83,2.13-6.29,2.78-2.46.65-5.21.98-8.24.98ZM250.63,29.91h19.53c0-1.35-.23-2.53-.69-3.54-.46-1.01-1.1-1.86-1.92-2.53-.82-.67-1.78-1.17-2.89-1.48-1.11-.31-2.34-.47-3.69-.47-2.07,0-3.85.3-5.32.9-1.47.6-2.62,1.51-3.44,2.71-.82,1.21-1.35,2.68-1.59,4.41Z"/>
    <path class="st0" d="M287.81,53.12V15.08h8.68l.87,6.22h.51c.48-1.3,1.18-2.51,2.1-3.62.92-1.11,2.04-1.98,3.36-2.6,1.33-.63,2.83-.94,4.52-.94.87,0,1.66.07,2.39.22.72.14,1.35.31,1.88.51v9.26h-4.19c-1.64,0-3.05.25-4.23.76-1.18.51-2.17,1.23-2.97,2.17-.8.94-1.37,2.04-1.74,3.29-.36,1.25-.54,2.68-.54,4.27v18.51h-10.63Z"/>
    <path class="st0" d="M332.5,53.99c-2.65,0-4.82-.41-6.51-1.23-1.69-.82-2.93-2.04-3.72-3.65-.8-1.61-1.19-3.63-1.19-6.04v-20.03h-5.86v-7.96h6.29l2.02-11.06h8.17v11.06h8.53v7.96h-8.53v18.51c0,1.45.3,2.54.9,3.29.6.75,1.75,1.12,3.44,1.12h4.19v6.87c-.63.19-1.4.37-2.31.54-.92.17-1.86.31-2.82.43-.97.12-1.83.18-2.6.18Z"/>
    <path class="st0" d="M365.54,53.99c-4.58,0-8.47-.71-11.68-2.13-3.21-1.42-5.65-3.6-7.34-6.54-1.69-2.94-2.53-6.68-2.53-11.21s.84-8.27,2.53-11.21c1.69-2.94,4.11-5.12,7.27-6.54,3.16-1.42,6.98-2.13,11.46-2.13s8.11.7,11.17,2.1c3.06,1.4,5.38,3.53,6.94,6.4,1.57,2.87,2.35,6.47,2.35,10.81v2.96h-30.81c.1,2.22.55,4.06,1.37,5.53.82,1.47,2.01,2.54,3.58,3.22,1.57.68,3.51,1.01,5.82,1.01,1.16,0,2.27-.13,3.33-.4,1.06-.26,2.02-.67,2.89-1.23.87-.55,1.59-1.24,2.17-2.06.58-.82.89-1.76.94-2.82h10.63c0,2.22-.5,4.22-1.48,6-.99,1.78-2.35,3.28-4.09,4.48-1.74,1.21-3.83,2.13-6.29,2.78-2.46.65-5.21.98-8.24.98ZM355.05,29.91h19.53c0-1.35-.23-2.53-.69-3.54-.46-1.01-1.1-1.86-1.92-2.53-.82-.67-1.78-1.17-2.89-1.48-1.11-.31-2.34-.47-3.69-.47-2.07,0-3.85.3-5.32.9-1.47.6-2.62,1.51-3.44,2.71-.82,1.21-1.35,2.68-1.59,4.41Z"/>
    <path class="st0" d="M404.45,53.99c-1.69,0-3.38-.17-5.06-.51-1.69-.34-3.19-.89-4.52-1.66-1.33-.77-2.4-1.87-3.22-3.29-.82-1.42-1.23-3.24-1.23-5.46,0-2.84.67-5.15,2.02-6.91,1.35-1.76,3.3-3.08,5.86-3.98,2.56-.89,5.58-1.48,9.08-1.77,3.49-.29,7.34-.43,11.53-.43v-2.24c0-1.3-.28-2.37-.83-3.22-.55-.84-1.42-1.51-2.6-1.99-1.18-.48-2.76-.72-4.74-.72-1.74,0-3.22.18-4.45.54-1.23.36-2.17.83-2.82,1.41-.65.58-.98,1.25-.98,2.02v.87h-10.41c-.05-.29-.08-.53-.11-.72-.02-.19-.04-.43-.04-.72,0-2.22.75-4.16,2.24-5.82,1.49-1.66,3.68-2.94,6.54-3.83,2.87-.89,6.3-1.34,10.31-1.34s7.36.43,10.09,1.3c2.72.87,4.81,2.22,6.26,4.05,1.45,1.83,2.17,4.17,2.17,7.01v16.71c0,.87.23,1.53.69,1.99.46.46,1.02.69,1.7.69h3.04v6.8c-.53.24-1.37.49-2.53.76-1.16.26-2.51.4-4.05.4-1.78,0-3.25-.23-4.41-.69-1.16-.46-2.06-1.08-2.71-1.88-.65-.8-1.12-1.72-1.41-2.78h-.58c-1.01,1.06-2.25,2.01-3.72,2.86-1.47.84-3.13,1.48-4.99,1.92-1.86.43-3.89.65-6.11.65ZM407.64,46.18c1.4,0,2.76-.18,4.09-.54,1.33-.36,2.52-.87,3.58-1.52,1.06-.65,1.93-1.47,2.6-2.46.67-.99,1.01-2.06,1.01-3.22v-2.1c-3.76,0-6.97.18-9.62.54-2.65.36-4.69.96-6.11,1.81-1.42.84-2.13,2.01-2.13,3.51,0,.96.29,1.74.87,2.31.58.58,1.37,1,2.39,1.27,1.01.27,2.12.4,3.33.4Z"/>
    <path class="st0" d="M439,53.12V15.08h8.68l.87,5.71h.51c1.01-1.49,2.23-2.74,3.65-3.72,1.42-.99,2.95-1.71,4.59-2.17,1.64-.46,3.33-.69,5.06-.69,2.94,0,5.42.52,7.45,1.55,2.02,1.04,3.57,2.71,4.63,5.03h.51c1.06-1.49,2.3-2.74,3.72-3.72,1.42-.99,2.99-1.71,4.7-2.17,1.71-.46,3.46-.69,5.24-.69,2.84,0,5.27.48,7.27,1.45,2,.96,3.55,2.51,4.66,4.63,1.11,2.12,1.66,4.82,1.66,8.1v24.73h-10.7v-22.92c0-1.35-.16-2.51-.47-3.47-.31-.96-.76-1.74-1.34-2.31s-1.31-.99-2.21-1.23c-.89-.24-1.84-.36-2.86-.36-1.59,0-3.05.37-4.38,1.12-1.33.75-2.39,1.81-3.18,3.18-.8,1.37-1.19,2.93-1.19,4.66v21.33h-10.56v-22.92c0-1.35-.17-2.51-.51-3.47-.34-.96-.81-1.74-1.41-2.31-.6-.58-1.33-.99-2.17-1.23-.84-.24-1.82-.36-2.93-.36-1.59,0-3.05.37-4.38,1.12-1.33.75-2.38,1.81-3.15,3.18-.77,1.37-1.16,2.93-1.16,4.66v21.33h-10.63Z"/>
  </g>
  <path class="st0" d="M40.59,4.19v31.85h-13.5l4.28,1.77c13.59,6.29,13,28.69-4.46,28.69H6.32v-31.85h14.88c-.2,0-3.33-.78-4.07-1.11-1.13-.5-2.66-1.11-3.78-1.94C1.56,23.44,4.4,4.19,20.68,4.19h19.9Z"/>
  <path class="st0" d="M87.32,13.89v7.78c0,6.99-7.07,13.65-13.71,14.68-1.23.19-2.46.22-3.6.22v7.27c-3.51.08-6.97,1-10.04,2.68-1.22.67-2.38,1.45-3.45,2.33-.5.41-.99.85-1.46,1.31-.26.25-.51.52-.76.78-.08.09-.16.17-.23.25h0c-.4.46-.8.93-1.17,1.41-.06.08-.12.16-.18.24-.97,1.32-1.79,2.74-2.44,4.23h0c-.19.45-.38.91-.54,1.36-.66-1-1.23-2.12-1.72-3.37-3.32-8.49-2.06-30.15-2.27-40.31-.08-3.52.08-7.05.01-10.57h24.23v9.7h.52s16.79,0,16.79,0Z"/>
  <g>
    <path class="st0" d="M287.81,82.43v-20.59h16.91c1.12,0,2.12.21,3.02.64.9.43,1.61,1.02,2.14,1.78.53.76.79,1.65.79,2.66,0,.9-.16,1.67-.48,2.3-.32.64-.75,1.16-1.3,1.56-.55.4-1.15.7-1.81.9v.12c.78.16,1.48.44,2.09.85s1.11.96,1.47,1.66c.36.7.54,1.55.54,2.54,0,1.18-.28,2.18-.85,3.01-.57.83-1.33,1.46-2.29,1.9s-2.03.66-3.23.66h-17ZM293.88,69.98h8.38c.46,0,.85-.09,1.17-.25.32-.17.57-.4.75-.7.18-.3.27-.66.27-1.08,0-.58-.2-1.04-.6-1.39-.4-.35-.9-.52-1.5-.52h-8.47v3.95ZM293.88,78.09h8.89c.64,0,1.16-.17,1.56-.52.4-.35.6-.88.6-1.6,0-.38-.09-.72-.25-1.02-.17-.3-.42-.53-.76-.7-.34-.17-.75-.25-1.23-.25h-8.8v4.1Z"/>
    <path class="st0" d="M330.11,82.43v-20.59h17.12c1.5,0,2.73.31,3.71.93.98.62,1.72,1.43,2.21,2.44s.75,2.11.75,3.31c0,1.3-.31,2.48-.93,3.55-.62,1.07-1.55,1.91-2.78,2.53l4.19,7.84h-6.88l-3.41-6.85h-7.9v6.85h-6.07ZM336.19,71.09h9.04c.74,0,1.33-.22,1.76-.66.44-.44.66-1.03.66-1.77,0-.48-.1-.89-.3-1.24s-.48-.61-.84-.79-.79-.27-1.29-.27h-9.04v4.73Z"/>
    <path class="st0" d="M370.87,82.43l10.11-20.59h6.79l10.11,20.59h-6.61l-1.56-3.29h-11.01l-1.56,3.29h-6.28ZM380.74,74.68h6.94l-1.86-4.19c-.08-.18-.19-.44-.33-.79-.14-.35-.29-.72-.45-1.11s-.3-.75-.42-1.08c-.12-.33-.22-.57-.3-.73h-.21c-.14.36-.31.78-.51,1.26-.2.48-.38.94-.55,1.38-.17.44-.32.8-.46,1.08l-1.85,4.19Z"/>
    <path class="st0" d="M426.82,82.79c-1.68,0-3.24-.1-4.7-.3-1.46-.2-2.73-.55-3.83-1.05-1.1-.5-1.96-1.2-2.57-2.09-.62-.9-.93-2.04-.93-3.41v-.15c0-.06,0-.12.03-.18h5.98c-.02.08-.04.16-.05.24,0,.08-.01.17-.01.27,0,.62.23,1.1.7,1.45.47.35,1.12.59,1.96.73.84.14,1.83.21,2.96.21.46,0,.93-.01,1.42-.04.49-.03.96-.08,1.42-.15.46-.07.87-.17,1.24-.31.37-.14.66-.31.87-.52.21-.21.31-.47.31-.79,0-.42-.22-.75-.67-1-.45-.25-1.07-.45-1.86-.6-.79-.15-1.67-.28-2.63-.4-.97-.12-1.97-.26-3.01-.43-1.04-.17-2.05-.4-3.02-.69-.98-.29-1.85-.67-2.63-1.15-.78-.48-1.4-1.1-1.86-1.86-.46-.76-.69-1.68-.69-2.75s.27-2.04.82-2.83c.55-.79,1.32-1.44,2.32-1.96,1-.52,2.17-.9,3.53-1.15,1.36-.25,2.83-.37,4.43-.37s3.12.13,4.44.39c1.33.26,2.46.64,3.41,1.15.95.51,1.68,1.15,2.18,1.91.51.77.76,1.67.76,2.71v.42h-5.89v-.24c0-.42-.18-.79-.54-1.12-.36-.33-.88-.59-1.57-.78-.69-.19-1.52-.28-2.5-.28-1.18,0-2.14.07-2.9.22-.76.15-1.32.35-1.68.6-.36.25-.54.53-.54.85,0,.4.23.71.69.94.46.23,1.08.41,1.85.55.78.14,1.65.27,2.62.39.97.12,1.97.26,3.02.42,1.05.16,2.05.38,3.02.66.97.28,1.84.65,2.62,1.12s1.4,1.07,1.85,1.8c.46.73.69,1.62.69,2.68,0,1.66-.48,2.99-1.44,4.01-.96,1.02-2.27,1.76-3.93,2.21-1.67.46-3.58.69-5.73.69Z"/>
    <path class="st0" d="M456.74,82.43v-20.59h6.07v20.59h-6.07Z"/>
    <path class="st0" d="M482.87,82.43v-20.59h6.07v15.68h13.23v4.91h-19.3Z"/>
  </g>
</svg>