<?xml version="1.0" encoding="UTF-8"?><svg id="Layer_2" xmlns="http://www.w3.org/2000/svg" viewBox="0 0 996.7 963.076"><defs><style>.cls-1{fill:#f5e8ca;}.cls-2{fill:#fff;}.cls-3{fill:#129d49;}.cls-4{fill:#fbd800;}.cls-5{fill:#233a75;}</style></defs><g id="Layer_1-2"><polygon class="cls-2" points="878.336 796.031 880.097 794.752 877.92 794.752 877.247 792.681 876.574 794.752 874.397 794.752 876.158 796.031 875.485 798.102 877.247 796.822 879.008 798.102 878.336 796.031"/><polygon class="cls-2" points="572.317 662.564 572.448 662.564 572.383 662.63 572.317 662.564"/><path class="cls-3" d="M995.843,757.876c0,14.115-1.451,27.901-4.155,41.225-1.913,9.301-4.419,18.402-7.519,27.175-1.649,4.617-3.43,9.168-5.409,13.653-6.134,14.049-13.786,27.241-22.69,39.378-.594.791-1.121,1.517-1.649,2.242-3.43,4.551-7.058,8.904-10.817,13.126-.066,0-.066.066-.066.066-.659.725-1.385,1.517-2.111,2.308-15.105,16.358-32.914,30.275-52.636,41.093-29.154,15.896-62.596,24.933-98.148,24.933s-68.993-9.036-98.148-24.933c-11.411-6.266-22.162-13.522-32.056-21.701-4.749-3.825-9.235-7.915-13.588-12.136-2.374-2.374-4.749-4.815-7.058-7.255-.659-.791-1.385-1.583-2.045-2.308-.066,0-.066-.066-.066-.066-3.76-4.222-7.387-8.575-10.817-13.126-.527-.725-1.121-1.452-1.649-2.242-8.97-12.137-16.622-25.329-22.756-39.378-1.913-4.486-3.694-9.036-5.343-13.653-3.1-8.773-5.673-17.875-7.586-27.175-2.704-13.324-4.089-27.109-4.089-41.225,0-12.665,1.121-25.065,3.364-37.069.198-1.385.462-2.771.725-4.155,1.913-9.301,4.485-18.403,7.586-27.175v-.066c1.649-4.617,3.43-9.168,5.343-13.654h.066c6.135-13.983,13.72-27.175,22.69-39.378.528-.725,1.122-1.451,1.649-2.176,3.43-4.552,7.058-8.97,10.817-13.192h.066c.659-.791,1.385-1.584,2.045-2.308,2.308-2.507,4.683-4.947,7.058-7.256,4.353-4.287,8.839-8.311,13.588-12.202,9.894-8.179,20.645-15.434,32.056-21.634,27.373-14.907,58.572-23.812,91.684-24.801,2.177-.066,4.287-.132,6.464-.132,35.552,0,68.994,9.036,98.148,24.933,19.722,10.751,37.531,24.669,52.636,41.093.726.725,1.451,1.517,2.111,2.308h.066c3.76,4.222,7.387,8.64,10.817,13.192.528.725,1.055,1.451,1.649,2.176,8.904,12.203,16.556,25.395,22.69,39.378,1.979,4.486,3.76,9.037,5.409,13.654v.066c3.1,8.772,5.606,17.875,7.519,27.175,2.705,13.323,4.155,27.109,4.155,41.225Z"/><path class="cls-2" d="M572.317,662.564l.066.066.066-.066h-.132Z"/><path class="cls-4" d="M983.747,757.931c0,11.937-1.085,23.874-3.376,35.691l-189.789,121.181-189.789-121.181c-2.291-11.696-3.256-23.633-3.256-35.691,0-11.937,1.086-23.634,3.256-35.45,0-.121,0-.362.121-.483l189.669-121.18,189.789,121.18c2.291,11.817,3.376,23.875,3.376,35.933Z"/><path class="cls-5" d="M895.525,757.86c0,4.793-.321,9.511-.946,14.132-.024.187-.049.374-.076.561-.797,5.695-2.053,11.243-3.728,16.606-.053.168-.106.336-.158.502-13.468,42.383-53.139,73.089-99.983,73.089-57.929,0-104.89-46.961-104.89-104.89,0-8.925,1.114-17.588,3.213-25.861.042-.17.085-.34.129-.509,1.436-5.543,3.313-10.909,5.593-16.056.077-.173.153-.345.231-.517,16.405-36.517,53.095-61.948,95.723-61.948,57.929,0,104.89,46.961,104.89,104.89Z"/><path class="cls-2" d="M894.579,771.992c-.024.187-.049.374-.076.561-.797,5.695-2.053,11.243-3.728,16.606-.053.168-.106.336-.158.502l-.162-.145c-43.933-39.43-100.669-61.146-159.758-61.146-13.939,0-27.91,1.208-41.528,3.591l-.212.037c.042-.17.085-.34.129-.509,1.436-5.543,3.313-10.909,5.593-16.056.077-.173.153-.345.231-.517,11.776-1.652,23.814-2.49,35.786-2.49,30.567,0,60.461,5.348,88.856,15.894,27.339,10.155,52.581,24.845,75.026,43.67Z"/><polygon class="cls-2" points="827.203 723.456 829.845 721.536 826.579 721.536 825.57 718.43 824.56 721.536 821.294 721.536 823.937 723.456 822.927 726.562 825.57 724.642 828.212 726.562 827.203 723.456"/><polygon class="cls-2" points="707.602 739.793 710.244 737.873 706.978 737.873 705.969 734.767 704.96 737.873 701.694 737.873 704.336 739.793 703.327 742.899 705.969 740.98 708.611 742.899 707.602 739.793"/><polygon class="cls-2" points="716.878 783.89 719.52 781.97 716.254 781.97 715.245 778.864 714.236 781.97 710.97 781.97 713.612 783.89 712.603 786.996 715.245 785.076 717.887 786.996 716.878 783.89"/><polygon class="cls-2" points="703.783 793.214 705.982 791.617 703.264 791.617 702.424 789.032 701.584 791.617 698.866 791.617 701.065 793.214 700.225 795.799 702.424 794.202 704.623 795.799 703.783 793.214"/><polygon class="cls-2" points="726.362 777.167 727.671 776.216 726.053 776.216 725.553 774.677 725.053 776.216 723.435 776.216 724.744 777.167 724.244 778.705 725.553 777.754 726.862 778.705 726.362 777.167"/><polygon class="cls-2" points="738.44 794.219 740.642 792.619 737.92 792.619 737.079 790.031 736.238 792.619 733.517 792.619 735.719 794.219 734.878 796.808 737.079 795.208 739.281 796.808 738.44 794.219"/><polygon class="cls-2" points="751.918 763.183 754.119 761.583 751.398 761.583 750.557 758.995 749.716 761.583 746.994 761.583 749.196 763.183 748.355 765.771 750.557 764.172 752.759 765.771 751.918 763.183"/><polygon class="cls-2" points="791.876 775.741 794.078 774.141 791.356 774.141 790.515 771.553 789.674 774.141 786.952 774.141 789.154 775.741 788.313 778.33 790.515 776.73 792.717 778.33 791.876 775.741"/><polygon class="cls-2" points="804.006 785.16 806.208 783.56 803.486 783.56 802.645 780.972 801.804 783.56 799.082 783.56 801.284 785.16 800.443 787.748 802.645 786.149 804.847 787.748 804.006 785.16"/><polygon class="cls-2" points="792.149 806.087 794.793 804.166 791.525 804.166 790.515 801.058 789.505 804.166 786.237 804.166 788.881 806.087 787.871 809.195 790.515 807.274 793.159 809.195 792.149 806.087"/><polygon class="cls-2" points="781.079 785.004 782.805 783.75 780.671 783.75 780.012 781.721 779.353 783.75 777.219 783.75 778.945 785.004 778.286 787.033 780.012 785.779 781.738 787.033 781.079 785.004"/><polygon class="cls-2" points="786.012 792.249 787.271 791.334 785.715 791.334 785.235 789.855 784.754 791.334 783.199 791.334 784.457 792.249 783.976 793.728 785.235 792.814 786.493 793.728 786.012 792.249"/><polygon class="cls-2" points="734.002 804.939 735.847 803.597 733.566 803.597 732.861 801.428 732.156 803.597 729.874 803.597 731.72 804.939 731.015 807.108 732.861 805.767 734.707 807.108 734.002 804.939"/><polygon class="cls-2" points="750.049 814.646 752.691 812.726 749.425 812.726 748.416 809.62 747.407 812.726 744.141 812.726 746.783 814.646 745.774 817.752 748.416 815.833 751.058 817.752 750.049 814.646"/><polygon class="cls-2" points="813.404 817.01 815.165 815.73 812.988 815.73 812.315 813.659 811.642 815.73 809.465 815.73 811.226 817.01 810.553 819.08 812.315 817.801 814.076 819.08 813.404 817.01"/><polygon class="cls-2" points="830.671 819.578 832.433 818.298 830.255 818.298 829.583 816.228 828.91 818.298 826.732 818.298 828.494 819.578 827.821 821.649 829.583 820.369 831.344 821.649 830.671 819.578"/><polygon class="cls-2" points="842.373 816.011 844.135 814.731 841.957 814.731 841.285 812.66 840.612 814.731 838.434 814.731 840.196 816.011 839.523 818.081 841.285 816.802 843.046 818.081 842.373 816.011"/><polygon class="cls-2" points="853.219 818.008 854.981 816.729 852.803 816.729 852.13 814.658 851.458 816.729 849.28 816.729 851.042 818.008 850.369 820.079 852.13 818.799 853.892 820.079 853.219 818.008"/><polygon class="cls-2" points="868.333 804.397 870.535 802.797 867.813 802.797 866.972 800.209 866.131 802.797 863.409 802.797 865.611 804.397 864.77 806.985 866.972 805.386 869.174 806.985 868.333 804.397"/><polygon class="cls-2" points="864.326 795.211 866.972 793.288 863.701 793.288 862.691 790.178 861.68 793.288 858.41 793.288 861.055 795.211 860.045 798.321 862.691 796.399 865.337 798.321 864.326 795.211"/><polygon class="cls-2" points="861.911 812.817 864.113 811.217 861.391 811.217 860.55 808.628 859.709 811.217 856.987 811.217 859.189 812.817 858.348 815.405 860.55 813.805 862.752 815.405 861.911 812.817"/><polygon class="cls-2" points="842.659 836.846 844.42 835.566 842.243 835.566 841.57 833.495 840.897 835.566 838.72 835.566 840.481 836.846 839.808 838.917 841.57 837.637 843.332 838.917 842.659 836.846"/><polygon class="cls-2" points="843.074 826.374 845.275 824.774 842.554 824.774 841.713 822.186 840.872 824.774 838.15 824.774 840.352 826.374 839.511 828.962 841.713 827.363 843.915 828.962 843.074 826.374"/><polygon class="cls-2" points="821.953 828.943 824.155 827.343 821.433 827.343 820.592 824.754 819.751 827.343 817.029 827.343 819.231 828.943 818.39 831.531 820.592 829.931 822.794 831.531 821.953 828.943"/><polygon class="cls-2" points="820.025 753.174 821.787 751.894 819.609 751.894 818.937 749.823 818.264 751.894 816.086 751.894 817.848 753.174 817.175 755.244 818.937 753.964 820.698 755.244 820.025 753.174"/><polygon class="cls-2" points="790.984 840.36 791.938 839.667 790.759 839.667 790.395 838.547 790.031 839.667 788.852 839.667 789.806 840.36 789.442 841.481 790.395 840.788 791.348 841.481 790.984 840.36"/><path class="cls-1" d="M422.912.022v391.015h-165.756l52.6,21.778c166.889,77.289,159.595,352.236-54.725,352.236H2.146v-391.015h182.745c-2.415,0-40.925-9.611-50.013-13.634-13.917-6.16-32.689-13.606-46.427-23.794C-56.261,236.323-21.447.022,178.528.022h244.384Z"/><path class="cls-1" d="M996.7,119.057v95.575c0,85.813-86.803,167.537-168.329,180.201-15.105,2.374-30.262,2.737-44.193,2.737v89.277c-43.072.989-85.55,12.334-123.278,32.848-14.973,8.179-29.22,17.743-42.346,28.626-6.2,5.013-12.203,10.421-17.875,16.029-3.166,3.1-6.266,6.332-9.3,9.564-.99,1.055-1.913,2.045-2.771,3.1h-.066c-4.947,5.607-9.762,11.411-14.313,17.347-.725.99-1.451,1.978-2.177,2.969-11.873,16.16-21.964,33.638-30.012,51.975v.066c-2.374,5.475-4.617,11.082-6.596,16.688-8.047-12.334-15.105-26.054-21.107-41.357-40.763-104.216-25.328-370.165-27.835-494.895-.924-43.203.99-86.604.132-129.808h297.544v119.136l6.398-.079h206.124Z"/></g></svg>