<?xml version="1.0" encoding="UTF-8"?><svg id="Layer_2" xmlns="http://www.w3.org/2000/svg" viewBox="0 0 327.605 318.371"><defs><style>.cls-1{fill:#ffd23f;}</style></defs><g id="Layer_1-2"><path class="cls-1" d="M22.875,84.383C12.697,69.358-.976,54.303.055,36.184,1.319,13.974,25.859-1.084,48.075.061c22.216,1.146,41.987,13.889,60.032,26.898,18.045,13.01,36.386,27.085,58.164,31.623,27.204,5.668,54.862-4.435,82.344-8.548,27.482-4.113,60.746.772,73.931,25.233,10.098,18.734,4.067,42.9-9.157,59.575-13.224,16.675-32.347,27.434-51.111,37.475-18.764,10.041-38.117,20.121-52.35,35.944-16.427,18.262-24.527,42.508-39.004,62.351-25.261,34.622-70.736,53.259-113.028,46.324-16.005-2.625-32.45-9.432-41.179-23.101-18.224-28.538,20.472-68.354,26.583-96.291,8.397-38.388,1.747-80.429-20.425-113.159Z"/></g></svg>