<?xml version="1.0" encoding="UTF-8"?><svg id="Layer_2" xmlns="http://www.w3.org/2000/svg" viewBox="0 0 340.956 321.739"><defs><style>.cls-1{fill:#1b231d;}</style></defs><g id="Layer_1-2"><path class="cls-1" d="M164.611,57.837c18.353-10.75,34.364-25.04,52.027-36.888C234.301,9.1,254.57-.504,275.833.021c21.165.523,41.79,11.774,53.686,29.288,11.896,17.513,14.753,40.834,7.438,60.701-18.535,50.34-88.242,62.805-114.597,109.528-17.078,30.276-12.921,70.237-34.172,97.746-16.584,21.467-47.79,30.223-73.12,20.518-25.33-9.705-42.696-37.072-40.69-64.124,1.511-20.369,12.73-40.622,7.073-60.248-3.957-13.724-15.51-23.915-27.652-31.436s-25.475-13.251-36.519-22.308C-12.437,115.315-2.567,72.249,37.239,74.952c45.837,3.113,85.376,7.484,127.372-17.115Z"/></g></svg>