<?xml version="1.0" encoding="UTF-8"?><svg id="Layer_2" xmlns="http://www.w3.org/2000/svg" viewBox="0 0 147.735 541.871"><defs><style>.cls-1{fill:#008b4c;}</style></defs><g id="Layer_1-2"><path class="cls-1" d="M140.406,427.339c2.157-6.231,2.39-12.939,2.602-19.53,1.431-44.413,2.862-88.826,4.293-133.239.711-22.07,1.363-44.611-5.089-65.729-7.486-24.503-24.307-46.296-26.311-71.838-1.476-18.82,5.337-37.145,10.346-55.346,5.008-18.201,8.096-38.421-.258-55.35C113.926,1.862,79.997-6.336,55.231,5.05,30.464,16.435,15.092,42.852,10.757,69.763c-4.336,26.911.831,54.431,7.767,80.792s15.692,52.42,18.716,79.51C46.506,313.064,1.374,393.174.026,476.678c-.236,14.654,1.021,29.815,7.843,42.787,8.913,16.946,28.479,28.136,46.95,19.316,14.911-7.12,15.784-19.453,17.598-34.105,2.323-18.767,9.938-30.233,25.976-40.634,15.43-10.007,35.477-17.82,42.012-36.704Z"/></g></svg>