<?xml version="1.0" encoding="UTF-8"?><svg id="Layer_2" xmlns="http://www.w3.org/2000/svg" viewBox="0 0 335.472 177.274"><defs><style>.cls-1{fill:#f5e8ca;}</style></defs><g id="Layer_1-2"><path class="cls-1" d="M2.487,61.359c5.062-7.53,15.359-9.054,24.424-9.452,29.647-1.302,59.314,1.986,88.987,1.653,29.673-.333,60.207-4.606,85.779-19.662,15.919-9.372,32.35-17.877,49.194-25.462,8.746-3.938,17.806-7.679,27.374-8.344,9.568-.665,19.86,2.229,25.98,9.614,7.848,9.47,6.952,23.329,4.256,35.329s-6.789,24.355-3.942,36.32c2.5,10.505,9.971,18.983,16.817,27.334,6.846,8.351,13.578,17.746,14.086,28.533.639,13.586-9.202,25.985-21.306,32.19-12.103,6.205-26.108,7.364-39.703,7.767-8.15.242-16.521.218-24.154-2.649-11.566-4.344-19.873-14.633-25.922-25.405s-10.456-22.478-17.421-32.682c-9.013-13.204-22.24-23.485-37.26-28.961-15.02-5.477-31.759-6.122-47.157-1.819-12.475,3.487-23.832,10.036-35.663,15.308s-24.789,9.348-37.598,7.425c-13.666-2.052-26.275-10.728-36.346-19.813-7.465-6.734-17.686-16.422-10.425-27.224Z"/></g></svg>